<svg xmlns="http://www.w3.org/2000/svg" xmlns:xlink="http://www.w3.org/1999/xlink" contentStyleType="text/css" data-diagram-type="DESCRIPTION" height="826px" preserveAspectRatio="none" style="width:2006px;height:826px;background:#FFFFFF;" version="1.1" viewBox="0 0 2006 826" width="2006px" zoomAndPan="magnify"><title>Doc-Rocker Source System (SvelteKit) - Porting Overview</title><defs/><g><g class="title" data-source-line="4"><text fill="#000000" font-family="sans-serif" font-size="14" font-weight="bold" lengthAdjust="spacing" textLength="454.3643" x="769.1127" y="22.9951">Doc-Rocker Source System (SvelteKit) - Porting Overview</text></g><!--cluster UI--><g class="cluster" data-entity="UI" data-source-line="11" data-uid="ent0003" id="cluster_UI"><rect fill="none" height="221.82" rx="2.5" ry="2.5" style="stroke:#181818;stroke-width:1;" width="761" x="7" y="214.5869"/><text fill="#000000" font-family="sans-serif" font-size="14" font-weight="bold" lengthAdjust="spacing" textLength="86.3105" x="344.3447" y="229.582">Browser UI</text></g><!--cluster Server--><g class="cluster" data-entity="Server" data-source-line="18" data-uid="ent0008" id="cluster_Server"><rect fill="none" height="372.96" rx="2.5" ry="2.5" style="stroke:#181818;stroke-width:1;" width="600" x="800" y="320.3069"/><text fill="#000000" font-family="sans-serif" font-size="14" font-weight="bold" lengthAdjust="spacing" textLength="106.5723" x="1046.7139" y="335.302">Svelte Server</text></g><!--cluster PWA--><g class="cluster" data-entity="PWA" data-source-line="32" data-uid="ent0019" id="cluster_PWA"><rect fill="none" height="103.29" rx="2.5" ry="2.5" style="stroke:#181818;stroke-width:1;" width="413" x="560" y="44.2969"/><text fill="#000000" font-family="sans-serif" font-size="14" font-weight="bold" lengthAdjust="spacing" textLength="93.4336" x="719.7832" y="59.292">PWA Assets</text></g><!--entity Page--><g class="entity" data-entity="Page" data-source-line="12" data-uid="ent0004" id="entity_Page"><rect fill="#F1F1F1" height="36.2969" rx="2.5" ry="2.5" style="stroke:#181818;stroke-width:0.5;" width="101.5596" x="31.22" y="363.4569"/><text fill="#000000" font-family="sans-serif" font-size="14" lengthAdjust="spacing" textLength="81.5596" x="41.22" y="386.452">Main Page /</text></g><!--entity Response--><g class="entity" data-entity="Response" data-source-line="13" data-uid="ent0005" id="entity_Response"><rect fill="#F1F1F1" height="36.2969" rx="2.5" ry="2.5" style="stroke:#181818;stroke-width:0.5;" width="139.4717" x="168.26" y="363.4569"/><text fill="#000000" font-family="sans-serif" font-size="14" lengthAdjust="spacing" textLength="119.4717" x="178.26" y="386.452">ResponseDisplay</text></g><!--entity Markdown--><g class="entity" data-entity="Markdown" data-source-line="14" data-uid="ent0006" id="entity_Markdown"><rect fill="#F1F1F1" height="36.2969" rx="2.5" ry="2.5" style="stroke:#181818;stroke-width:0.5;" width="143.9014" x="343.05" y="363.4569"/><text fill="#000000" font-family="sans-serif" font-size="14" lengthAdjust="spacing" textLength="123.9014" x="353.05" y="386.452">MarkdownDisplay</text></g><!--entity Storage--><g class="entity" data-entity="Storage" data-source-line="15" data-uid="ent0007" id="entity_Storage"><path d="M521.77,360.8069 C521.77,350.8069 632.9966,350.8069 632.9966,350.8069 C632.9966,350.8069 744.2231,350.8069 744.2231,360.8069 L744.2231,402.4006 C744.2231,412.4006 632.9966,412.4006 632.9966,412.4006 C632.9966,412.4006 521.77,412.4006 521.77,402.4006 L521.77,360.8069" fill="#F1F1F1" style="stroke:#181818;stroke-width:0.5;"/><path d="M521.77,360.8069 C521.77,370.8069 632.9966,370.8069 632.9966,370.8069 C632.9966,370.8069 744.2231,370.8069 744.2231,360.8069" fill="none" style="stroke:#181818;stroke-width:0.5;"/><text fill="#000000" font-family="sans-serif" font-size="14" lengthAdjust="spacing" textLength="87.3975" x="531.77" y="387.802">localStorage</text><text fill="#000000" font-family="sans-serif" font-size="14" lengthAdjust="spacing" textLength="202.4531" x="531.77" y="404.0989">selectedDocumentationPicks</text></g><!--entity Chat--><g class="entity" data-entity="Chat" data-source-line="19" data-uid="ent0009" id="entity_Chat"><rect fill="#F1F1F1" height="52.5938" rx="2.5" ry="2.5" style="stroke:#181818;stroke-width:0.5;" width="81.4277" x="890.29" y="355.3069"/><text fill="#000000" font-family="sans-serif" font-size="14" lengthAdjust="spacing" textLength="61.4277" x="900.29" y="378.302">/api/chat</text><text fill="#000000" font-family="sans-serif" font-size="14" lengthAdjust="spacing" textLength="26.6191" x="900.29" y="394.5989">SSE</text></g><!--entity Rock--><g class="entity" data-entity="Rock" data-source-line="20" data-uid="ent0010" id="entity_Rock"><rect fill="#F1F1F1" height="52.5938" rx="2.5" ry="2.5" style="stroke:#181818;stroke-width:0.5;" width="80.915" x="1041.54" y="355.3069"/><text fill="#000000" font-family="sans-serif" font-size="14" lengthAdjust="spacing" textLength="60.915" x="1051.54" y="378.302">/api/rock</text><text fill="#000000" font-family="sans-serif" font-size="14" lengthAdjust="spacing" textLength="34.5078" x="1051.54" y="394.5989">JSON</text></g><!--entity MCP--><g class="entity" data-entity="MCP" data-source-line="21" data-uid="ent0011" id="entity_MCP"><rect fill="#F1F1F1" height="52.5938" rx="2.5" ry="2.5" style="stroke:#181818;stroke-width:0.5;" width="87.5049" x="1249.25" y="355.3069"/><text fill="#000000" font-family="sans-serif" font-size="14" lengthAdjust="spacing" textLength="61.0107" x="1259.25" y="378.302">/api/mcp</text><text fill="#000000" font-family="sans-serif" font-size="14" lengthAdjust="spacing" textLength="67.5049" x="1259.25" y="394.5989">JSON-RPC</text></g><!--entity Search--><g class="entity" data-entity="Search" data-source-line="22" data-uid="ent0012" id="entity_Search"><rect fill="#F1F1F1" height="36.2969" rx="2.5" ry="2.5" style="stroke:#181818;stroke-width:0.5;" width="120.1465" x="1021.93" y="509.3869"/><text fill="#000000" font-family="sans-serif" font-size="14" lengthAdjust="spacing" textLength="100.1465" x="1031.93" y="532.382">SearchService</text></g><!--entity PerplexityEngine--><g class="entity" data-entity="PerplexityEngine" data-source-line="23" data-uid="ent0013" id="entity_PerplexityEngine"><rect fill="#F1F1F1" height="36.2969" rx="2.5" ry="2.5" style="stroke:#181818;stroke-width:0.5;" width="186.5371" x="815.73" y="632.8169"/><text fill="#000000" font-family="sans-serif" font-size="14" lengthAdjust="spacing" textLength="166.5371" x="825.73" y="655.812">PerplexitySearchEngine</text></g><!--entity TavilyEngine--><g class="entity" data-entity="TavilyEngine" data-source-line="24" data-uid="ent0014" id="entity_TavilyEngine"><rect fill="#F1F1F1" height="36.2969" rx="2.5" ry="2.5" style="stroke:#181818;stroke-width:0.5;" width="157.8672" x="1037.07" y="632.8169"/><text fill="#000000" font-family="sans-serif" font-size="14" lengthAdjust="spacing" textLength="137.8672" x="1047.07" y="655.812">TavilySearchEngine</text></g><!--entity Combiner--><g class="entity" data-entity="Combiner" data-source-line="25" data-uid="ent0015" id="entity_Combiner"><rect fill="#F1F1F1" height="52.5938" rx="2.5" ry="2.5" style="stroke:#181818;stroke-width:0.5;" width="154.9551" x="1229.52" y="624.6669"/><text fill="#000000" font-family="sans-serif" font-size="14" lengthAdjust="spacing" textLength="134.9551" x="1239.52" y="647.662">LlmConnectService</text><text fill="#000000" font-family="sans-serif" font-size="14" lengthAdjust="spacing" textLength="67.9971" x="1239.52" y="663.9589">Combiner</text></g><!--entity Manifest--><g class="entity" data-entity="Manifest" data-source-line="33" data-uid="ent0020" id="entity_Manifest"><rect fill="#F1F1F1" height="36.2969" rx="2.5" ry="2.5" style="stroke:#181818;stroke-width:0.5;" width="114.377" x="603.81" y="87.2969"/><text fill="#000000" font-family="sans-serif" font-size="14" lengthAdjust="spacing" textLength="94.377" x="613.81" y="110.292">manifest.json</text></g><!--entity SW--><g class="entity" data-entity="SW" data-source-line="34" data-uid="ent0021" id="entity_SW"><rect fill="#F1F1F1" height="36.2969" rx="2.5" ry="2.5" style="stroke:#181818;stroke-width:0.5;" width="54.3779" x="752.81" y="87.2969"/><text fill="#000000" font-family="sans-serif" font-size="14" lengthAdjust="spacing" textLength="34.3779" x="762.81" y="110.292">sw.js</text></g><!--entity Icons--><g class="entity" data-entity="Icons" data-source-line="35" data-uid="ent0022" id="entity_Icons"><rect fill="#F1F1F1" height="36.2969" rx="2.5" ry="2.5" style="stroke:#181818;stroke-width:0.5;" width="106.8574" x="842.57" y="87.2969"/><text fill="#000000" font-family="sans-serif" font-size="14" lengthAdjust="spacing" textLength="86.8574" x="852.57" y="110.292">icons + logo</text></g><!--entity User--><g class="entity" data-entity="User" data-source-line="9" data-uid="ent0002" id="entity_User"><ellipse cx="420.9951" cy="75.7969" fill="#F1F1F1" rx="8" ry="8" style="stroke:#181818;stroke-width:0.5;"/><path d="M420.9951,83.7969 L420.9951,110.7969 M407.9951,91.7969 L433.9951,91.7969 M420.9951,110.7969 L407.9951,125.7969 M420.9951,110.7969 L433.9951,125.7969" fill="none" style="stroke:#181818;stroke-width:0.5;"/><text fill="#000000" font-family="sans-serif" font-size="14" lengthAdjust="spacing" textLength="31.9102" x="405.04" y="140.292">User</text></g><!--entity Perplexity--><g class="entity" data-entity="Perplexity" data-source-line="28" data-uid="ent0016" id="entity_Perplexity"><path d="M853.6508,758.198 C856.1734,751.4691 861.8381,751.0188 866.0423,756.4901 C869.02,752.0898 874.028,751.7157 876.2435,757.2711 C878.6346,751.2133 884.0233,751.1498 887.9117,755.61 C891.1069,748.9148 896.4883,748.8048 900.1072,755.2157 C902.775,750.9465 905.6611,750.4794 909.2311,754.1834 C913.0555,747.6249 917.0183,749.2393 921.1103,753.9 C926.0264,749.0129 930.1951,750.4239 932.7045,756.4557 C935.787,751.0736 939.5947,751.4512 942.8526,756.2814 C947.1349,751.7883 951.4356,751.2336 954.4499,757.6316 C957.7662,751.553 961.7481,751.6079 965.458,757.2623 C972.3225,760.6751 974.766,768.2927 966.6034,772.8124 C974.2993,777.6221 973.8301,783.4079 966.4158,788.0313 C963.4909,794.123 958.8889,793.8624 955.4596,788.5143 C951.2212,794.811 947.2505,793.1619 943.5831,787.9263 C940.3247,794.1628 935.9195,794.7294 931.2292,789.4642 C928.3374,793.671 924.2698,793.7382 921.2389,789.6312 C919.4273,795.1608 914.4598,795.1403 911.0592,791.3707 C906.2123,797.4491 902.182,796.5535 898.6412,790.0786 C893.9986,795.8938 889.9968,795.0403 887.0815,788.4668 C884.6827,793.7526 880.0236,793.8566 877.2618,788.8118 C874.0561,794.566 868.0346,794.503 865.2233,788.411 C861.4154,792.1064 857.3599,791.521 854.8732,786.7884 C847.9251,783.9897 845.6994,778.6146 851.1633,772.576 C845.0958,767.118 845.6835,761.2278 853.6508,758.198" fill="#F1F1F1" style="stroke:#181818;stroke-width:0.5;"/><text fill="#000000" font-family="sans-serif" font-size="14" lengthAdjust="spacing" textLength="96.749" x="860.63" y="776.402">Perplexity API</text></g><!--entity Tavily--><g class="entity" data-entity="Tavily" data-source-line="29" data-uid="ent0017" id="entity_Tavily"><path d="M1045.5368,758.2677 C1048.9995,750.3946 1055.9273,750.89 1060.1888,757.4572 C1063.0506,750.4526 1068.7458,749.6303 1073.1329,755.9787 C1076.5568,748.439 1082.9156,749.1347 1087.6271,754.5367 C1091.7751,748.8202 1095.9083,749.1808 1099.9137,754.6928 C1105.3137,748.3746 1111.2953,748.22 1115.5188,755.9955 C1119.2452,750.9021 1124.1437,750.6187 1127.1911,756.7044 C1136.4012,757.4003 1142.0583,762.8321 1137.0194,772.4321 C1141.9915,781.053 1137.2721,787.5184 1127.7963,786.979 C1125.2056,795.0352 1118.3837,795.6538 1113.819,788.8337 C1110.4362,795.4901 1104.9238,795.8466 1100.2718,790.2352 C1096.6062,797.3293 1091.8082,797.9219 1086.1837,792.4275 C1081.985,798.4258 1076.3493,796.0039 1074.2109,790.3166 C1069.9211,797.2403 1063.4222,795.6005 1059.8893,789.4852 C1055.4503,796.0524 1049.6502,794.0325 1046.7661,787.8808 C1036.3706,787.8499 1034.4439,780.2501 1039.2719,772.7026 C1034.2443,764.6751 1035.9214,759.94 1045.5368,758.2677" fill="#F1F1F1" style="stroke:#181818;stroke-width:0.5;"/><text fill="#000000" font-family="sans-serif" font-size="14" lengthAdjust="spacing" textLength="68.0791" x="1051.96" y="776.402">Tavily API</text></g><!--entity LLM--><g class="entity" data-entity="LLM" data-source-line="30" data-uid="ent0018" id="entity_LLM"><path d="M1181.1815,748.9635 C1189.5277,735.5385 1198.4697,738.0143 1206.3848,749.4014 C1215.4643,736.7767 1227.2933,737.2161 1233.7405,752.0261 C1239.3547,741.1642 1249.1313,738.2472 1257.0558,749.6014 C1265.8113,739.4717 1275.8225,739.4235 1283.0549,751.3933 C1289.5643,738.5553 1301.9004,736.81 1310.8823,748.5996 C1318.3264,736.5638 1330.2612,736.9435 1336.1636,750.144 C1341.7387,738.7975 1351.4169,734.8586 1360.6269,746.23 C1367.6525,736.5083 1378.2205,734.5121 1384.7378,746.7872 C1394.9687,736.1474 1406.2711,737.5092 1413.3487,750.5906 C1418.7078,738.3327 1429.17,738.2439 1435.6509,749.5278 C1444.2334,734.392 1454.8362,733.7065 1465.0646,747.8758 C1472.657,735.4945 1483.6546,739.1882 1489.6931,749.558 C1497.236,736.9035 1508.1317,740.431 1514.5112,750.8115 C1521.4829,736.6874 1533.1219,737.5492 1542.0008,748.7404 C1556.1047,755.5569 1556.3708,764.3958 1544.4954,773.7986 C1552.6656,781.4383 1551.796,792.2293 1539.7151,795.3842 C1531.8411,805.206 1524.7565,805.8666 1516.1301,796.2996 C1509.7547,807.8679 1499.0683,810.5977 1491.0489,798.0064 C1483.0424,812.0311 1473.8417,812.7298 1464.0959,799.7418 C1455.6112,812.2288 1447.0679,813.3757 1437.6024,800.7777 C1429.2305,814.3617 1419.8701,814.7658 1409.5251,802.9596 C1404.7128,815.8542 1393.5797,816.4963 1385.0658,807.0038 C1378.2743,819.5908 1366.0421,819.4348 1358.8125,807.4723 C1350.5527,819.1793 1339.6689,819.0804 1332.6858,806.12 C1324.5388,816.6836 1316.3098,815.5915 1309.0294,805.1444 C1301.7304,816.3944 1289.8834,814.3283 1284.7954,802.7928 C1274.435,815.669 1265.6567,814.8502 1255.9087,802.1024 C1248.1209,812.331 1239.3444,811.0928 1232.7423,800.766 C1223.0504,810.2935 1213.4948,808.3745 1207.5564,796.3746 C1197.4562,810.8476 1188.0815,808.9093 1177.8193,796.5542 C1171.3358,793.1555 1172.3529,787.6864 1178.0333,784.5038 C1172.547,782.9631 1170.2659,777.764 1175.2388,773.554 C1170.9103,769.1075 1170.7907,764.824 1177.2123,762.2552 C1171.8498,756.4678 1173.1418,750.7487 1181.1815,748.9635" fill="#F1F1F1" style="stroke:#181818;stroke-width:0.5;"/><text fill="#000000" font-family="sans-serif" font-size="14" lengthAdjust="spacing" textLength="90.3232" x="1184.81" y="768.262">LLM Provider</text><text fill="#000000" font-family="sans-serif" font-size="14" lengthAdjust="spacing" textLength="346.377" x="1184.81" y="784.5589">(OpenAI, Anthropic, Gemini, Mistral, OpenRouter)</text></g><g class="entity" data-entity="GMN41" data-source-line="61" data-uid="ent0042" id="entity_GMN41"><path d="M1416.11,346.3369 L1416.11,416.8681 L1755.8829,416.8681 L1755.8829,356.3369 L1745.8829,346.3369 L1416.11,346.3369" fill="#FEFFDD" style="stroke:#181818;stroke-width:0.5;"/><path d="M1745.8829,346.3369 L1745.8829,356.3369 L1755.8829,356.3369 L1745.8829,346.3369" fill="#FEFFDD" style="stroke:#181818;stroke-width:1;"/><text fill="#000000" font-family="sans-serif" font-size="13" lengthAdjust="spacing" textLength="98.4268" x="1422.11" y="363.4038">SSE messages:</text><text fill="#000000" font-family="sans-serif" font-size="13" lengthAdjust="spacing" textLength="236.3423" x="1422.11" y="378.5366">- status: "Starting search engines..."</text><text fill="#000000" font-family="sans-serif" font-size="13" lengthAdjust="spacing" textLength="318.7729" x="1422.11" y="393.6694">- status: "Search completed. Preparing results..."</text><text fill="#000000" font-family="sans-serif" font-size="13" lengthAdjust="spacing" textLength="204.7881" x="1422.11" y="408.8022">- final: CombinedChatResponse</text></g><g class="entity" data-entity="GMN44" data-source-line="68" data-uid="ent0045" id="entity_GMN44"><path d="M1790.56,346.3369 L1790.56,416.8681 L1991.4335,416.8681 L1991.4335,356.3369 L1981.4335,346.3369 L1790.56,346.3369" fill="#FEFFDD" style="stroke:#181818;stroke-width:0.5;"/><path d="M1981.4335,346.3369 L1981.4335,356.3369 L1991.4335,356.3369 L1981.4335,346.3369" fill="#FEFFDD" style="stroke:#181818;stroke-width:1;"/><text fill="#000000" font-family="sans-serif" font-size="13" lengthAdjust="spacing" textLength="105.6821" x="1796.56" y="363.4038">Validation rules:</text><text fill="#000000" font-family="sans-serif" font-size="13" lengthAdjust="spacing" textLength="105.5234" x="1796.56" y="378.5366">- query required</text><text fill="#000000" font-family="sans-serif" font-size="13" lengthAdjust="spacing" textLength="105.6948" x="1796.56" y="393.6694">- max 400 chars</text><text fill="#000000" font-family="sans-serif" font-size="13" lengthAdjust="spacing" textLength="179.8735" x="1796.56" y="408.8022">- one pick unless worldwide</text></g><g class="entity" data-entity="GMN47" data-source-line="75" data-uid="ent0048" id="entity_GMN47"><path d="M1416.24,507.4069 L1416.24,547.6725 L1665.762,547.6725 L1665.762,517.4069 L1655.762,507.4069 L1416.24,507.4069" fill="#FEFFDD" style="stroke:#181818;stroke-width:0.5;"/><path d="M1655.762,507.4069 L1655.762,517.4069 L1665.762,517.4069 L1655.762,507.4069" fill="#FEFFDD" style="stroke:#181818;stroke-width:1;"/><text fill="#000000" font-family="sans-serif" font-size="13" lengthAdjust="spacing" textLength="138.563" x="1422.24" y="524.4738">Requires User-Agent:</text><text fill="#000000" font-family="sans-serif" font-size="13" lengthAdjust="spacing" textLength="228.522" x="1422.24" y="539.6066">Web-Search-Doc-Rocker-MCP/0.1.0</text></g><g class="entity" data-entity="GMN50" data-source-line="80" data-uid="ent0051" id="entity_GMN50"><path d="M1700.41,514.9669 L1700.41,540.0997 L1999.5897,540.0997 L1999.5897,524.9669 L1989.5897,514.9669 L1700.41,514.9669" fill="#FEFFDD" style="stroke:#181818;stroke-width:0.5;"/><path d="M1989.5897,514.9669 L1989.5897,524.9669 L1999.5897,524.9669 L1989.5897,514.9669" fill="#FEFFDD" style="stroke:#181818;stroke-width:1;"/><text fill="#000000" font-family="sans-serif" font-size="13" lengthAdjust="spacing" textLength="278.1797" x="1706.41" y="532.0338">Implementation code not in source extract</text></g><!--link User to UI--><g class="link" data-entity-1="User" data-entity-2="UI" data-source-line="38" data-uid="lnk23" id="link_User_UI"><path d="M420.45,143.7669 C422.23,160.3269 427.32,178.7169 440,190.5869 C446.5175,196.6881 456.3405,202.0506 468.5488,206.7638 C474.6529,209.1203 481.3534,211.3146 488.5351,213.3576 C489.4329,213.613 490.3381,213.866 491.2506,214.1167 C491.7069,214.2421 486.3724,212.8028 486.8323,212.927" fill="none" id="User-to-UI" style="stroke:#181818;stroke-width:1;"/><polygon fill="#181818" points="492.6249,214.491,484.9787,208.2832,487.7978,213.1876,482.8934,216.0067,492.6249,214.491" style="stroke:#181818;stroke-width:1;"/><text fill="#000000" font-family="sans-serif" font-size="13" lengthAdjust="spacing" textLength="85.2046" x="441" y="186.6538">Query + pick</text></g><!--link UI to Storage--><g class="link" data-entity-1="UI" data-entity-2="Storage" data-source-line="39" data-uid="lnk24" id="link_UI_Storage"><path d="M759.33,242.3669 C750.41,243.1269 654.9,251.7469 638,272.3069 C620.31,293.8269 620.4015,320.7522 624.4715,344.6222" fill="none" id="UI-to-Storage" style="stroke:#181818;stroke-width:1;"/><polygon fill="#181818" points="625.48,350.5369,627.9104,340.9926,624.6396,345.608,620.0242,342.3372,625.48,350.5369" style="stroke:#181818;stroke-width:1;"/><text fill="#000000" font-family="sans-serif" font-size="13" lengthAdjust="spacing" textLength="118.7012" x="639" y="292.8738">Save or load picks</text></g><!--link UI to Chat--><g class="link" data-entity-1="UI" data-entity-2="Chat" data-source-line="40" data-uid="lnk25" id="link_UI_Chat"><path d="M768.1514,243.1424 C771.837,243.5402 776.6138,244.0804 782.1494,244.7627 C793.2206,246.1272 807.3275,248.06 821.8125,250.5581 C850.7825,255.5544 881.265,262.8119 892,272.3069 C915.8,293.3669 924.2127,324.0999 927.8327,348.8799" fill="none" id="UI-to-Chat" style="stroke:#181818;stroke-width:1;"/><polygon fill="#181818" points="928.7,354.8169,931.357,345.3332,927.9772,349.8694,923.441,346.4896,928.7,354.8169" style="stroke:#181818;stroke-width:1;"/><text fill="#000000" font-family="sans-serif" font-size="13" lengthAdjust="spacing" textLength="95.437" x="914.6" y="285.3738">POST /api/chat</text><text fill="#000000" font-family="sans-serif" font-size="13" lengthAdjust="spacing" textLength="24.7178" x="949.9596" y="300.5066">SSE</text></g><!--link Chat to UI--><g class="link" data-entity-1="Chat" data-entity-2="UI" data-source-line="48" data-uid="lnk33" id="link_Chat_UI"><path d="M890,364.7069 C860.81,351.8169 822.12,331.3569 795,304.3069 C784.5,293.8319 776.1525,279.5544 770.2475,267.3406 C769.5094,265.8139 768.8094,264.3194 768.1482,262.8687 C768.1069,262.778 770.5468,268.1505 770.5058,268.0601" fill="none" id="Chat-to-UI" style="stroke:#181818;stroke-width:1;"/><polygon fill="#181818" points="768.0247,262.5972,768.1043,272.4457,770.0922,267.1496,775.3883,269.1376,768.0247,262.5972" style="stroke:#181818;stroke-width:1;"/><text fill="#000000" font-family="sans-serif" font-size="13" lengthAdjust="spacing" textLength="87.1089" x="796" y="285.3738">status + final</text><text fill="#000000" font-family="sans-serif" font-size="13" lengthAdjust="spacing" textLength="72.6489" x="803.23" y="300.5066">SSE events</text></g><!--link Chat to Search--><g class="link" data-entity-1="Chat" data-entity-2="Search" data-source-line="41" data-uid="lnk26" id="link_Chat_Search"><path d="M922.67,408.0569 C917.6,428.7269 914.55,457.5869 929,477.4069 C950.12,506.3669 982.6582,517.7349 1015.7382,522.7649" fill="none" id="Chat-to-Search" style="stroke:#181818;stroke-width:1;"/><polygon fill="#181818" points="1021.67,523.6669,1013.3736,518.3594,1016.7268,522.9152,1012.171,526.2685,1021.67,523.6669" style="stroke:#181818;stroke-width:1;"/><text fill="#000000" font-family="sans-serif" font-size="13" lengthAdjust="spacing" textLength="143.6855" x="930" y="473.4738">searchDocumentation</text></g><!--link Search to PerplexityEngine--><g class="link" data-entity-1="Search" data-entity-2="PerplexityEngine" data-source-line="42" data-uid="lnk27" id="link_Search_PerplexityEngine"><path d="M1021.69,537.7969 C977.45,545.9669 922.79,559.4169 909,577.6669 C897.27,593.1869 898.3674,610.5783 902.1374,626.4983" fill="none" id="Search-to-PerplexityEngine" style="stroke:#181818;stroke-width:1;"/><polygon fill="#181818" points="903.52,632.3369,905.3384,622.6573,902.3678,627.4714,897.5537,624.5008,903.52,632.3369" style="stroke:#181818;stroke-width:1;"/><text fill="#000000" font-family="sans-serif" font-size="13" lengthAdjust="spacing" textLength="158.6724" x="910" y="590.7338">search(perplexityQuery)</text></g><!--link Search to TavilyEngine--><g class="link" data-entity-1="Search" data-entity-2="TavilyEngine" data-source-line="43" data-uid="lnk28" id="link_Search_TavilyEngine"><path d="M1078.52,546.0469 C1076.53,559.6069 1075.26,578.7069 1080,594.6669 C1084.11,608.5069 1089.2382,617.3561 1097.1082,627.6161" fill="none" id="Search-to-TavilyEngine" style="stroke:#181818;stroke-width:1;"/><polygon fill="#181818" points="1100.76,632.3769,1098.4562,622.8013,1097.7169,628.4096,1092.1085,627.6703,1100.76,632.3769" style="stroke:#181818;stroke-width:1;"/><text fill="#000000" font-family="sans-serif" font-size="13" lengthAdjust="spacing" textLength="154.8638" x="1081" y="590.7338">search(query, domains)</text></g><!--link Search to Combiner--><g class="link" data-entity-1="Search" data-entity-2="Combiner" data-source-line="44" data-uid="lnk29" id="link_Search_Combiner"><path d="M1142.56,539.5569 C1173.38,547.0469 1210.47,559.0569 1240,577.6669 C1259.25,589.8069 1272.8757,604.1348 1285.0857,619.6248" fill="none" id="Search-to-Combiner" style="stroke:#181818;stroke-width:1;"/><polygon fill="#181818" points="1288.8,624.3369,1286.3699,614.7925,1285.7047,620.4101,1280.0871,619.7449,1288.8,624.3369" style="stroke:#181818;stroke-width:1;"/><text fill="#000000" font-family="sans-serif" font-size="13" lengthAdjust="spacing" textLength="103.835" x="1262.2" y="590.7338">combine results</text></g><!--link PerplexityEngine to Perplexity--><g class="link" data-entity-1="PerplexityEngine" data-entity-2="Perplexity" data-source-line="45" data-uid="lnk30" id="link_PerplexityEngine_Perplexity"><path d="M909,669.4669 C909,690.3369 909,719.2769 909,742.1269" fill="none" id="PerplexityEngine-to-Perplexity" style="stroke:#181818;stroke-width:1;"/><polygon fill="#181818" points="909,748.1269,913,739.1269,909,743.1269,905,739.1269,909,748.1269" style="stroke:#181818;stroke-width:1;"/></g><!--link TavilyEngine to Tavily--><g class="link" data-entity-1="TavilyEngine" data-entity-2="Tavily" data-source-line="46" data-uid="lnk31" id="link_TavilyEngine_Tavily"><path d="M1111.57,669.4669 C1106.29,690.3369 1098.919,719.4595 1093.149,742.3095" fill="none" id="TavilyEngine-to-Tavily" style="stroke:#181818;stroke-width:1;"/><polygon fill="#181818" points="1091.68,748.1269,1097.7617,740.3801,1092.9042,743.279,1090.0052,738.4215,1091.68,748.1269" style="stroke:#181818;stroke-width:1;"/></g><!--link Combiner to LLM--><g class="link" data-entity-1="Combiner" data-entity-2="LLM" data-source-line="47" data-uid="lnk32" id="link_Combiner_LLM"><path d="M1318.07,677.6969 C1325.92,695.9569 1334.1175,715.0359 1342.4175,734.3159" fill="none" id="Combiner-to-LLM" style="stroke:#181818;stroke-width:1;"/><polygon fill="#181818" points="1344.79,739.8269,1344.9053,729.9787,1342.8129,735.2344,1337.5573,733.142,1344.79,739.8269" style="stroke:#181818;stroke-width:1;"/></g><!--link UI to Rock--><g class="link" data-entity-1="UI" data-entity-2="Rock" data-source-line="50" data-uid="lnk34" id="link_UI_Rock"><path d="M768.2237,242.2967 C768.3924,242.297 768.5635,242.2974 768.737,242.2977 C770.1248,242.3008 771.6639,242.3063 773.3439,242.315 C780.0639,242.35 789.0387,242.4382 799.6067,242.642 C820.7428,243.0497 848.2519,243.92 876.8413,245.7531 C934.02,249.4194 995.52,256.9369 1019,272.3069 C1048.3,291.4869 1063.6894,323.7097 1072.5494,349.1897" fill="none" id="UI-to-Rock" style="stroke:#181818;stroke-width:1;"/><polygon fill="#181818" points="1074.52,354.8569,1075.3422,345.0424,1072.8778,350.1342,1067.786,347.6699,1074.52,354.8569" style="stroke:#181818;stroke-width:1;"/><text fill="#000000" font-family="sans-serif" font-size="13" lengthAdjust="spacing" textLength="94.9609" x="1068.9666" y="285.3738">POST /api/rock</text><text fill="#000000" font-family="sans-serif" font-size="13" lengthAdjust="spacing" textLength="131.9741" x="1050.46" y="300.5066">User-Agent required</text></g><!--link Rock to Search--><g class="link" data-entity-1="Rock" data-entity-2="Search" data-source-line="51" data-uid="lnk35" id="link_Rock_Search"><path d="M1082,408.3369 C1082,437.4469 1082,478.0569 1082,503.1669" fill="none" id="Rock-to-Search" style="stroke:#181818;stroke-width:1;"/><polygon fill="#181818" points="1082,509.1669,1086,500.1669,1082,504.1669,1078,500.1669,1082,509.1669" style="stroke:#181818;stroke-width:1;"/></g><!--link UI to MCP--><g class="link" data-entity-1="UI" data-entity-2="MCP" data-source-line="53" data-uid="lnk36" id="link_UI_MCP"><path d="M768.5418,242.5363 C768.7806,242.5428 769.024,242.5494 769.2721,242.5562 C769.7683,242.5698 770.283,242.5839 770.816,242.5986 C771.8821,242.628 773.0212,242.6597 774.2308,242.6936 C776.6501,242.7614 779.3512,242.8384 782.3136,242.9244 C794.1629,243.2684 810.1912,243.7581 829.0705,244.3956 C866.8291,245.6706 915.9919,247.5369 965.9363,250.0119 C1065.825,254.9619 1168.84,262.3469 1190,272.3069 C1228.26,290.3269 1256.1795,324.3498 1273.8695,350.2898" fill="none" id="UI-to-MCP" style="stroke:#181818;stroke-width:1;"/><polygon fill="#181818" points="1277.25,355.2469,1275.484,345.5577,1274.4329,351.116,1268.8746,350.065,1277.25,355.2469" style="stroke:#181818;stroke-width:1;"/><text fill="#000000" font-family="sans-serif" font-size="13" lengthAdjust="spacing" textLength="124.9219" x="1233.94" y="285.3738">JSON-RPC tools/call</text><text fill="#000000" font-family="sans-serif" font-size="13" lengthAdjust="spacing" textLength="81.7197" x="1255.5411" y="300.5066">list + search</text></g><!--link PWA to UI--><g class="link" data-entity-1="PWA" data-entity-2="UI" data-source-line="55" data-uid="lnk37" id="link_PWA_UI"><path d="M559.894,115.8229 C559.6203,116.1638 559.3423,116.5124 559.0605,116.8684 C554.5516,122.5656 549.0669,130.1756 544.4163,138.6169 C535.115,155.4994 529.15,175.7069 541,190.5869 C544.8275,195.3944 551.0289,199.7812 558.9621,203.7782 C562.9286,205.7767 567.3281,207.6777 572.0803,209.4851 C574.4564,210.3888 576.9206,211.2691 579.463,212.1264 C580.7342,212.5551 582.0249,212.978 583.3339,213.3953 C583.9884,213.6039 584.6475,213.8112 585.311,214.017 C585.6427,214.1199 585.9756,214.2224 586.3095,214.3246" fill="none" id="PWA-UI" style="stroke:#181818;stroke-width:1;stroke-dasharray:7,7;"/><text fill="#000000" font-family="sans-serif" font-size="13" lengthAdjust="spacing" textLength="187.1289" x="542" y="186.6538">PWA meta + SW registration</text></g><!--link Manifest to UI--><g class="link" data-entity-1="Manifest" data-entity-2="UI" data-source-line="56" data-uid="lnk38" id="link_Manifest_UI"><path d="M687.49,123.8769 C704.09,136.0369 724.78,153.6269 738,173.5869 C742.21,179.9494 745.6713,187.1812 748.4995,194.4881 C749.9137,198.1416 751.1696,201.8137 752.2817,205.4054 C752.8378,207.2012 753.3579,208.9769 753.8439,210.72 C754.0869,211.5916 754.3213,212.455 754.5475,213.3088 C754.6606,213.7356 754.7716,214.1601 754.8805,214.5819" fill="none" id="Manifest-UI" style="stroke:#181818;stroke-width:1;stroke-dasharray:7,7;"/></g><!--link SW to UI--><g class="link" data-entity-1="SW" data-entity-2="UI" data-source-line="57" data-uid="lnk39" id="link_SW_UI"><path d="M781.55,124.0269 C782.65,141.1669 783.28,167.9069 779,190.5869 C776.855,201.9769 772.33,214.1494 768.2338,223.6744 C768.1697,223.8232 768.1058,223.9714 768.0421,224.1189" fill="none" id="SW-UI" style="stroke:#181818;stroke-width:1;stroke-dasharray:7,7;"/></g><!--link Icons to UI--><g class="link" data-entity-1="Icons" data-entity-2="UI" data-source-line="58" data-uid="lnk40" id="link_Icons_UI"><path d="M878.22,124.0269 C860.075,141.9719 831.1525,170.5769 806.4575,195.0006 C794.11,207.2125 782.8194,218.3791 774.4613,226.6452 C772.3717,228.7117 770.4655,230.5969 768.7718,232.2719 C768.5601,232.4813 768.3517,232.6874 768.1467,232.8901" fill="none" id="Icons-UI" style="stroke:#181818;stroke-width:1;stroke-dasharray:7,7;"/></g><!--link Chat to GMN41--><g class="link" data-entity-1="Chat" data-entity-2="GMN41" data-source-line="61" data-uid="lnk43" id="link_Chat_GMN41"><path d="M949.42,355.1869 C968.92,329.7369 1002.28,292.8969 1041.5,277.3069 C1182.34,221.3369 1235.17,241.7569 1382.5,277.3069 C1437.3,290.5369 1493.92,321.1769 1533.48,345.8469" fill="none" id="Chat-GMN41" style="stroke:#181818;stroke-width:1;stroke-dasharray:7,7;"/></g><!--link Page to GMN44--><g class="link" data-entity-1="Page" data-entity-2="GMN44" data-source-line="68" data-uid="lnk46" id="link_Page_GMN44"><path d="M90.86,362.9969 C103.89,338.0969 130.81,295.0169 168.5,277.3069 C248.3,239.8169 1672.03,248.9069 1755.5,277.3069 C1795.41,290.8869 1832.73,321.4969 1858.06,346.0569" fill="none" id="Page-GMN44" style="stroke:#181818;stroke-width:1;stroke-dasharray:7,7;"/></g><!--link Rock to GMN47--><g class="link" data-entity-1="Rock" data-entity-2="GMN47" data-source-line="75" data-uid="lnk49" id="link_Rock_GMN47"><path d="M1122.78,404.2969 C1152.43,419.3869 1193.89,439.1169 1232,452.4069 C1298.68,475.6569 1375.93,494.1869 1436.51,506.9069" fill="none" id="Rock-GMN47" style="stroke:#181818;stroke-width:1;stroke-dasharray:7,7;"/></g><!--link MCP to GMN50--><g class="link" data-entity-1="MCP" data-entity-2="GMN50" data-source-line="80" data-uid="lnk52" id="link_MCP_GMN50"><path d="M1323.99,408.0769 C1344.16,423.3169 1371.71,441.7369 1399,452.4069 C1460.48,476.4369 1632.54,500.5369 1745.48,514.4769" fill="none" id="MCP-GMN50" style="stroke:#181818;stroke-width:1;stroke-dasharray:7,7;"/></g><!--SRC=[TLNBRjiw4DtpAmRPDC6rv5oWAoyAk6vHk3TfTAsqsNZ3I6ERDKMg96N7AFhl7P9wM6ww4ZLpvioJmpVmGHV9IXTxD61rOme4Ux8EAz07D0U1HzXe0xKsJgWjE0rtue3VICwO4qxYEK4U2V98S9qVK3hyJxWRI21h6HvQMiRiNgYQ6rv1eQjQArGkToTYD5WuhhOIpo1snqjzz0GRBYqonWj7SNsrQ1Zh3U3glT57ai7NvHLmIn_uoM1m05VtN2Z8-1PX6X3-E4QiqDBHuWTXQybF0TN9BhdCdg9IvyXEHiYIE_xCBKKbTS5bJW6JipNHI0eOIwfSKn4HTqAhJ1Hx6nXQ7FirIYmM4tAg7fg82yVB_AQy5jDYnzrQvVd705pGtoiWGqrRgy_vmvUO8ls-WggAEeAILRQ86IwoCIv7RegT3qSKs8Rc9MDKXgQM-2BSAMe_ggrG4Jweed1i-CWFGlvf5CMl6Tp9Qg6LejgrCQtLGbVFX8k5wtvyXGkfc_8yE9XdoukWEb3qs0FYRwUykxk7pEY3AD6irVL3ZMg-dC1SkPtHjIWcy0aheSG4xeLrXii9UCnADmxDJI0aYb7BiwSvpAr55-V2_ruqk-9ARD2wzBlLgXs_A1dZx94GiJDFOuqeQApX7v1wgmDWwGM-ClvgGPAyytTe1lytQ4w4eqpsZ2HUqGugQND-GA3hA3Kl0yHs63zx1CWUyaSOZoOBgi0JMaie6mwZQy5QfSTTZablSLttcX3dpRdL-PmC5ZyyRWAbhcWVs951Dnu4BkAHDf9jfBFiZmZ6OR6Hhy4vwoczpBUvppqKrrAkZU_2HYWkGtK03rG2oxew-jivgcEylRv9oNphMsdmHoCCbYn0Xxhs57HlYQ6xohJAjRHJsalaKD98adlR6lX9IzCOcpzNw3YfyoToiWtJ6rhJpLh4CbB7GnYXzioKfgrbn7RdG6_YAlBfLMWjpOwTiQHDVqQBnF7uICH004CXRPgcLoDOrFefbaXxDAMBX_HCUCksKwr9gEUiwsZflVUR75K9FhZB4CE3y8rBKOOimJGoXXb6PYXp0XL_WRUtjq0ZRIpzqvKAmm-D8XCBHsraUQI5SEdhMJkdA-yiBDrLfBGmT7F6dl0vYOacmmkRK0-dj-c_wUtVAVrwNlhAz7U8AbMY1mCzVUqZZo_KnS8DDBy1]--></g></svg>