<svg xmlns="http://www.w3.org/2000/svg" xmlns:xlink="http://www.w3.org/1999/xlink" contentStyleType="text/css" data-diagram-type="DESCRIPTION" height="913px" preserveAspectRatio="none" style="width:2369px;height:913px;background:#FFFFFF;" version="1.1" viewBox="0 0 2369 913" width="2369px" zoomAndPan="magnify"><title>Doc-Rocker Source System (SvelteKit) - Porting Overview</title><defs/><g><g class="title" data-source-line="4"><text fill="#000000" font-family="sans-serif" font-size="14" font-weight="bold" lengthAdjust="spacing" textLength="454.3643" x="950.5346" y="22.9951">Doc-Rocker Source System (SvelteKit) - Porting Overview</text></g><!--cluster UI--><g class="cluster" data-entity="UI" data-source-line="12" data-uid="ent0004" id="cluster_UI"><rect fill="none" height="275.61" rx="2.5" ry="2.5" style="stroke:#181818;stroke-width:1;" width="761" x="7" y="231.3769"/><text fill="#000000" font-family="sans-serif" font-size="14" font-weight="bold" lengthAdjust="spacing" textLength="86.3105" x="344.3447" y="246.372">Browser UI</text></g><!--cluster Server--><g class="cluster" data-entity="Server" data-source-line="19" data-uid="ent0009" id="cluster_Server"><rect fill="none" height="388.96" rx="2.5" ry="2.5" style="stroke:#181818;stroke-width:1;" width="624" x="808" y="382.8869"/><text fill="#000000" font-family="sans-serif" font-size="14" font-weight="bold" lengthAdjust="spacing" textLength="106.5723" x="1066.7139" y="397.882">Svelte Server</text></g><!--cluster PWA--><g class="cluster" data-entity="PWA" data-source-line="32" data-uid="ent0019" id="cluster_PWA"><rect fill="none" height="103.3" rx="2.5" ry="2.5" style="stroke:#181818;stroke-width:1;" width="413" x="560" y="44.2969"/><text fill="#000000" font-family="sans-serif" font-size="14" font-weight="bold" lengthAdjust="spacing" textLength="93.4336" x="719.7832" y="59.292">PWA Assets</text></g><!--entity Page--><g class="entity" data-entity="Page" data-source-line="13" data-uid="ent0005" id="entity_Page"><rect fill="#F1F1F1" height="36.2969" rx="2.5" ry="2.5" style="stroke:#181818;stroke-width:0.5;" width="101.5596" x="31.22" y="434.0369"/><text fill="#000000" font-family="sans-serif" font-size="14" lengthAdjust="spacing" textLength="81.5596" x="41.22" y="457.032">Main Page /</text></g><!--entity Response--><g class="entity" data-entity="Response" data-source-line="14" data-uid="ent0006" id="entity_Response"><rect fill="#F1F1F1" height="36.2969" rx="2.5" ry="2.5" style="stroke:#181818;stroke-width:0.5;" width="139.4717" x="168.26" y="434.0369"/><text fill="#000000" font-family="sans-serif" font-size="14" lengthAdjust="spacing" textLength="119.4717" x="178.26" y="457.032">ResponseDisplay</text></g><!--entity Markdown--><g class="entity" data-entity="Markdown" data-source-line="15" data-uid="ent0007" id="entity_Markdown"><rect fill="#F1F1F1" height="36.2969" rx="2.5" ry="2.5" style="stroke:#181818;stroke-width:0.5;" width="143.9014" x="343.05" y="434.0369"/><text fill="#000000" font-family="sans-serif" font-size="14" lengthAdjust="spacing" textLength="123.9014" x="353.05" y="457.032">MarkdownDisplay</text></g><!--entity Storage--><g class="entity" data-entity="Storage" data-source-line="16" data-uid="ent0008" id="entity_Storage"><path d="M521.77,431.3869 C521.77,421.3869 632.9966,421.3869 632.9966,421.3869 C632.9966,421.3869 744.2231,421.3869 744.2231,431.3869 L744.2231,472.9806 C744.2231,482.9806 632.9966,482.9806 632.9966,482.9806 C632.9966,482.9806 521.77,482.9806 521.77,472.9806 L521.77,431.3869" fill="#F1F1F1" style="stroke:#181818;stroke-width:0.5;"/><path d="M521.77,431.3869 C521.77,441.3869 632.9966,441.3869 632.9966,441.3869 C632.9966,441.3869 744.2231,441.3869 744.2231,431.3869" fill="none" style="stroke:#181818;stroke-width:0.5;"/><text fill="#000000" font-family="sans-serif" font-size="14" lengthAdjust="spacing" textLength="87.3975" x="531.77" y="458.382">localStorage</text><text fill="#000000" font-family="sans-serif" font-size="14" lengthAdjust="spacing" textLength="202.4531" x="531.77" y="474.6789">selectedDocumentationPicks</text></g><!--entity Chat--><g class="entity" data-entity="Chat" data-source-line="20" data-uid="ent0010" id="entity_Chat"><rect fill="#F1F1F1" height="52.5938" rx="2.5" ry="2.5" style="stroke:#181818;stroke-width:0.5;" width="81.4277" x="896.29" y="425.8869"/><text fill="#000000" font-family="sans-serif" font-size="14" lengthAdjust="spacing" textLength="61.4277" x="906.29" y="448.882">/api/chat</text><text fill="#000000" font-family="sans-serif" font-size="14" lengthAdjust="spacing" textLength="26.6191" x="906.29" y="465.1789">SSE</text></g><!--entity Rock--><g class="entity" data-entity="Rock" data-source-line="21" data-uid="ent0011" id="entity_Rock"><rect fill="#F1F1F1" height="52.5938" rx="2.5" ry="2.5" style="stroke:#181818;stroke-width:0.5;" width="80.915" x="1049.54" y="425.8869"/><text fill="#000000" font-family="sans-serif" font-size="14" lengthAdjust="spacing" textLength="60.915" x="1059.54" y="448.882">/api/rock</text><text fill="#000000" font-family="sans-serif" font-size="14" lengthAdjust="spacing" textLength="34.5078" x="1059.54" y="465.1789">JSON</text></g><!--entity Search--><g class="entity" data-entity="Search" data-source-line="22" data-uid="ent0012" id="entity_Search"><rect fill="#F1F1F1" height="36.2969" rx="2.5" ry="2.5" style="stroke:#181818;stroke-width:0.5;" width="120.1465" x="1029.93" y="579.9669"/><text fill="#000000" font-family="sans-serif" font-size="14" lengthAdjust="spacing" textLength="100.1465" x="1039.93" y="602.962">SearchService</text></g><!--entity PerplexityEngine--><g class="entity" data-entity="PerplexityEngine" data-source-line="23" data-uid="ent0013" id="entity_PerplexityEngine"><rect fill="#F1F1F1" height="36.2969" rx="2.5" ry="2.5" style="stroke:#181818;stroke-width:0.5;" width="186.5371" x="831.73" y="703.3969"/><text fill="#000000" font-family="sans-serif" font-size="14" lengthAdjust="spacing" textLength="166.5371" x="841.73" y="726.392">PerplexitySearchEngine</text></g><!--entity TavilyEngine--><g class="entity" data-entity="TavilyEngine" data-source-line="24" data-uid="ent0014" id="entity_TavilyEngine"><rect fill="#F1F1F1" height="36.2969" rx="2.5" ry="2.5" style="stroke:#181818;stroke-width:0.5;" width="157.8672" x="1053.07" y="703.3969"/><text fill="#000000" font-family="sans-serif" font-size="14" lengthAdjust="spacing" textLength="137.8672" x="1063.07" y="726.392">TavilySearchEngine</text></g><!--entity Combiner--><g class="entity" data-entity="Combiner" data-source-line="25" data-uid="ent0015" id="entity_Combiner"><rect fill="#F1F1F1" height="52.5938" rx="2.5" ry="2.5" style="stroke:#181818;stroke-width:0.5;" width="154.9551" x="1245.52" y="695.2469"/><text fill="#000000" font-family="sans-serif" font-size="14" lengthAdjust="spacing" textLength="134.9551" x="1255.52" y="718.242">LlmConnectService</text><text fill="#000000" font-family="sans-serif" font-size="14" lengthAdjust="spacing" textLength="67.9971" x="1255.52" y="734.5389">Combiner</text></g><!--entity Manifest--><g class="entity" data-entity="Manifest" data-source-line="33" data-uid="ent0020" id="entity_Manifest"><rect fill="#F1F1F1" height="36.2969" rx="2.5" ry="2.5" style="stroke:#181818;stroke-width:0.5;" width="114.377" x="603.81" y="87.2969"/><text fill="#000000" font-family="sans-serif" font-size="14" lengthAdjust="spacing" textLength="94.377" x="613.81" y="110.292">manifest.json</text></g><!--entity SW--><g class="entity" data-entity="SW" data-source-line="34" data-uid="ent0021" id="entity_SW"><rect fill="#F1F1F1" height="36.2969" rx="2.5" ry="2.5" style="stroke:#181818;stroke-width:0.5;" width="54.3779" x="752.81" y="87.2969"/><text fill="#000000" font-family="sans-serif" font-size="14" lengthAdjust="spacing" textLength="34.3779" x="762.81" y="110.292">sw.js</text></g><!--entity Icons--><g class="entity" data-entity="Icons" data-source-line="35" data-uid="ent0022" id="entity_Icons"><rect fill="#F1F1F1" height="36.2969" rx="2.5" ry="2.5" style="stroke:#181818;stroke-width:0.5;" width="106.8574" x="842.57" y="87.2969"/><text fill="#000000" font-family="sans-serif" font-size="14" lengthAdjust="spacing" textLength="86.8574" x="852.57" y="110.292">icons + logo</text></g><!--entity User--><g class="entity" data-entity="User" data-source-line="9" data-uid="ent0002" id="entity_User"><ellipse cx="420.9951" cy="75.7969" fill="#F1F1F1" rx="8" ry="8" style="stroke:#181818;stroke-width:0.5;"/><path d="M420.9951,83.7969 L420.9951,110.7969 M407.9951,91.7969 L433.9951,91.7969 M420.9951,110.7969 L407.9951,125.7969 M420.9951,110.7969 L433.9951,125.7969" fill="none" style="stroke:#181818;stroke-width:0.5;"/><text fill="#000000" font-family="sans-serif" font-size="14" lengthAdjust="spacing" textLength="31.9102" x="405.04" y="140.292">User</text></g><!--entity MCPWrapper--><g class="entity" data-entity="MCPWrapper" data-source-line="10" data-uid="ent0003" id="entity_MCPWrapper"><ellipse cx="1503.997" cy="229.0969" fill="#F1F1F1" rx="8" ry="8" style="stroke:#181818;stroke-width:0.5;"/><path d="M1503.997,237.0969 L1503.997,264.0969 M1490.997,245.0969 L1516.997,245.0969 M1503.997,264.0969 L1490.997,279.0969 M1503.997,264.0969 L1516.997,279.0969" fill="none" style="stroke:#181818;stroke-width:0.5;"/><text fill="#000000" font-family="sans-serif" font-size="14" lengthAdjust="spacing" textLength="144.874" x="1431.56" y="293.592">MCP Wrapper (stdin)</text></g><!--entity Perplexity--><g class="entity" data-entity="Perplexity" data-source-line="28" data-uid="ent0016" id="entity_Perplexity"><path d="M869.6508,844.778 C872.1734,838.0491 877.8381,837.5988 882.0423,843.0701 C885.02,838.6698 890.028,838.2957 892.2435,843.8511 C894.6346,837.7933 900.0233,837.7298 903.9117,842.19 C907.1069,835.4948 912.4883,835.3848 916.1072,841.7957 C918.775,837.5265 921.6611,837.0594 925.2311,840.7634 C929.0555,834.2049 933.0183,835.8193 937.1103,840.48 C942.0264,835.5929 946.1951,837.0039 948.7045,843.0357 C951.787,837.6536 955.5947,838.0312 958.8526,842.8614 C963.1349,838.3683 967.4356,837.8136 970.4499,844.2116 C973.7662,838.133 977.7481,838.1879 981.458,843.8423 C988.3225,847.2551 990.766,854.8727 982.6034,859.3924 C990.2993,864.2021 989.8301,869.9879 982.4158,874.6113 C979.4909,880.703 974.8889,880.4424 971.4596,875.0943 C967.2212,881.391 963.2505,879.7419 959.5831,874.5063 C956.3247,880.7428 951.9195,881.3094 947.2292,876.0442 C944.3374,880.251 940.2698,880.3182 937.2389,876.2112 C935.4273,881.7408 930.4598,881.7203 927.0592,877.9507 C922.2123,884.0291 918.182,883.1335 914.6412,876.6586 C909.9986,882.4738 905.9968,881.6203 903.0815,875.0468 C900.6827,880.3326 896.0236,880.4366 893.2618,875.3918 C890.0561,881.146 884.0346,881.083 881.2233,874.991 C877.4154,878.6864 873.3599,878.101 870.8732,873.3684 C863.9251,870.5697 861.6994,865.1946 867.1633,859.156 C861.0958,853.698 861.6835,847.8078 869.6508,844.778" fill="#F1F1F1" style="stroke:#181818;stroke-width:0.5;"/><text fill="#000000" font-family="sans-serif" font-size="14" lengthAdjust="spacing" textLength="96.749" x="876.63" y="862.982">Perplexity API</text></g><!--entity Tavily--><g class="entity" data-entity="Tavily" data-source-line="29" data-uid="ent0017" id="entity_Tavily"><path d="M1061.5368,844.8477 C1064.9995,836.9746 1071.9273,837.47 1076.1888,844.0372 C1079.0506,837.0326 1084.7458,836.2103 1089.1329,842.5587 C1092.5568,835.019 1098.9156,835.7147 1103.6271,841.1167 C1107.7751,835.4002 1111.9083,835.7608 1115.9137,841.2728 C1121.3137,834.9546 1127.2953,834.8 1131.5188,842.5755 C1135.2452,837.4821 1140.1437,837.1987 1143.1911,843.2844 C1152.4012,843.9803 1158.0583,849.4121 1153.0194,859.0121 C1157.9915,867.633 1153.2721,874.0984 1143.7963,873.559 C1141.2056,881.6152 1134.3837,882.2338 1129.819,875.4137 C1126.4362,882.0701 1120.9238,882.4266 1116.2718,876.8152 C1112.6062,883.9093 1107.8082,884.5019 1102.1837,879.0075 C1097.985,885.0058 1092.3493,882.5839 1090.2109,876.8966 C1085.9211,883.8203 1079.4222,882.1805 1075.8893,876.0652 C1071.4503,882.6324 1065.6502,880.6125 1062.7661,874.4608 C1052.3706,874.4299 1050.4439,866.8301 1055.2719,859.2826 C1050.2443,851.2551 1051.9214,846.52 1061.5368,844.8477" fill="#F1F1F1" style="stroke:#181818;stroke-width:0.5;"/><text fill="#000000" font-family="sans-serif" font-size="14" lengthAdjust="spacing" textLength="68.0791" x="1067.96" y="862.982">Tavily API</text></g><!--entity LLM--><g class="entity" data-entity="LLM" data-source-line="30" data-uid="ent0018" id="entity_LLM"><path d="M1197.1815,835.5435 C1205.5277,822.1185 1214.4697,824.5943 1222.3848,835.9814 C1231.4643,823.3567 1243.2933,823.7961 1249.7405,838.6061 C1255.3547,827.7442 1265.1313,824.8272 1273.0558,836.1814 C1281.8113,826.0517 1291.8225,826.0035 1299.0549,837.9733 C1305.5643,825.1353 1317.9004,823.39 1326.8823,835.1796 C1334.3264,823.1438 1346.2612,823.5235 1352.1636,836.724 C1357.7387,825.3775 1367.4169,821.4386 1376.6269,832.81 C1383.6525,823.0883 1394.2205,821.0921 1400.7378,833.3672 C1410.9687,822.7274 1422.2711,824.0892 1429.3487,837.1706 C1434.7078,824.9127 1445.17,824.8239 1451.6509,836.1078 C1460.2334,820.972 1470.8362,820.2865 1481.0646,834.4558 C1488.657,822.0745 1499.6546,825.7682 1505.6931,836.138 C1513.236,823.4835 1524.1317,827.011 1530.5112,837.3915 C1537.4829,823.2674 1549.1219,824.1292 1558.0008,835.3204 C1572.1047,842.1369 1572.3708,850.9758 1560.4954,860.3786 C1568.6656,868.0183 1567.796,878.8093 1555.7151,881.9642 C1547.8411,891.786 1540.7565,892.4466 1532.1301,882.8796 C1525.7547,894.4479 1515.0683,897.1777 1507.0489,884.5864 C1499.0424,898.6111 1489.8417,899.3098 1480.0959,886.3218 C1471.6112,898.8088 1463.0679,899.9557 1453.6024,887.3577 C1445.2305,900.9417 1435.8701,901.3458 1425.5251,889.5396 C1420.7128,902.4342 1409.5797,903.0763 1401.0658,893.5838 C1394.2743,906.1708 1382.0421,906.0148 1374.8125,894.0523 C1366.5527,905.7593 1355.6689,905.6604 1348.6858,892.7 C1340.5388,903.2636 1332.3098,902.1715 1325.0294,891.7244 C1317.7304,902.9744 1305.8834,900.9083 1300.7954,889.3728 C1290.435,902.249 1281.6567,901.4302 1271.9087,888.6824 C1264.1209,898.911 1255.3444,897.6728 1248.7423,887.346 C1239.0504,896.8735 1229.4948,894.9545 1223.5564,882.9546 C1213.4562,897.4276 1204.0815,895.4893 1193.8193,883.1342 C1187.3358,879.7355 1188.3529,874.2664 1194.0333,871.0838 C1188.547,869.5431 1186.2659,864.344 1191.2388,860.134 C1186.9103,855.6875 1186.7907,851.404 1193.2123,848.8352 C1187.8498,843.0478 1189.1418,837.3287 1197.1815,835.5435" fill="#F1F1F1" style="stroke:#181818;stroke-width:0.5;"/><text fill="#000000" font-family="sans-serif" font-size="14" lengthAdjust="spacing" textLength="90.3232" x="1200.81" y="854.842">LLM Provider</text><text fill="#000000" font-family="sans-serif" font-size="14" lengthAdjust="spacing" textLength="346.377" x="1200.81" y="871.1389">(OpenAI, Anthropic, Gemini, Mistral, OpenRouter)</text></g><g class="entity" data-entity="GMN41" data-source-line="60" data-uid="ent0042" id="entity_GMN41"><path d="M1787.11,416.9169 L1787.11,487.4481 L2126.8829,487.4481 L2126.8829,426.9169 L2116.8829,416.9169 L1787.11,416.9169" fill="#FEFFDD" style="stroke:#181818;stroke-width:0.5;"/><path d="M2116.8829,416.9169 L2116.8829,426.9169 L2126.8829,426.9169 L2116.8829,416.9169" fill="#FEFFDD" style="stroke:#181818;stroke-width:1;"/><text fill="#000000" font-family="sans-serif" font-size="13" lengthAdjust="spacing" textLength="98.4268" x="1793.11" y="433.9838">SSE messages:</text><text fill="#000000" font-family="sans-serif" font-size="13" lengthAdjust="spacing" textLength="236.3423" x="1793.11" y="449.1166">- status: "Starting search engines..."</text><text fill="#000000" font-family="sans-serif" font-size="13" lengthAdjust="spacing" textLength="318.7729" x="1793.11" y="464.2494">- status: "Search completed. Preparing results..."</text><text fill="#000000" font-family="sans-serif" font-size="13" lengthAdjust="spacing" textLength="204.7881" x="1793.11" y="479.3822">- final: CombinedChatResponse</text></g><g class="entity" data-entity="GMN44" data-source-line="67" data-uid="ent0045" id="entity_GMN44"><path d="M2161.56,416.9169 L2161.56,487.4481 L2362.4335,487.4481 L2362.4335,426.9169 L2352.4335,416.9169 L2161.56,416.9169" fill="#FEFFDD" style="stroke:#181818;stroke-width:0.5;"/><path d="M2352.4335,416.9169 L2352.4335,426.9169 L2362.4335,426.9169 L2352.4335,416.9169" fill="#FEFFDD" style="stroke:#181818;stroke-width:1;"/><text fill="#000000" font-family="sans-serif" font-size="13" lengthAdjust="spacing" textLength="105.6821" x="2167.56" y="433.9838">Validation rules:</text><text fill="#000000" font-family="sans-serif" font-size="13" lengthAdjust="spacing" textLength="105.5234" x="2167.56" y="449.1166">- query required</text><text fill="#000000" font-family="sans-serif" font-size="13" lengthAdjust="spacing" textLength="105.6948" x="2167.56" y="464.2494">- max 400 chars</text><text fill="#000000" font-family="sans-serif" font-size="13" lengthAdjust="spacing" textLength="179.8735" x="2167.56" y="479.3822">- one pick unless worldwide</text></g><g class="entity" data-entity="GMN47" data-source-line="74" data-uid="ent0048" id="entity_GMN47"><path d="M1456.24,577.9869 L1456.24,618.2525 L1705.762,618.2525 L1705.762,587.9869 L1695.762,577.9869 L1456.24,577.9869" fill="#FEFFDD" style="stroke:#181818;stroke-width:0.5;"/><path d="M1695.762,577.9869 L1695.762,587.9869 L1705.762,587.9869 L1695.762,577.9869" fill="#FEFFDD" style="stroke:#181818;stroke-width:1;"/><text fill="#000000" font-family="sans-serif" font-size="13" lengthAdjust="spacing" textLength="138.563" x="1462.24" y="595.0538">Requires User-Agent:</text><text fill="#000000" font-family="sans-serif" font-size="13" lengthAdjust="spacing" textLength="228.522" x="1462.24" y="610.1866">Web-Search-Doc-Rocker-MCP/0.1.0</text></g><g class="entity" data-entity="GMN50" data-source-line="79" data-uid="ent0051" id="entity_GMN50"><path d="M1459.68,439.6169 L1459.68,464.7497 L1752.3216,464.7497 L1752.3216,449.6169 L1742.3216,439.6169 L1459.68,439.6169" fill="#FEFFDD" style="stroke:#181818;stroke-width:0.5;"/><path d="M1742.3216,439.6169 L1742.3216,449.6169 L1752.3216,449.6169 L1742.3216,439.6169" fill="#FEFFDD" style="stroke:#181818;stroke-width:1;"/><text fill="#000000" font-family="sans-serif" font-size="13" lengthAdjust="spacing" textLength="271.6416" x="1465.68" y="456.6838">MCP handled externally via stdin wrapper</text></g><!--link User to UI--><g class="link" data-entity-1="User" data-entity-2="UI" data-source-line="38" data-uid="lnk23" id="link_User_UI"><path d="M420.77,143.9069 C422.65,160.2969 427.73,178.5069 440,190.5969 C452.84,203.2419 478.9988,213.745 511.0789,222.3908 C519.0989,224.5522 527.4891,226.5976 536.1337,228.5313 C540.456,229.4982 538.9648,229.2291 543.3999,230.1407" fill="none" id="User-to-UI" style="stroke:#181818;stroke-width:1;"/><polygon fill="#181818" points="549.2771,231.3487,541.2667,225.6186,544.3795,230.3421,539.656,233.4548,549.2771,231.3487" style="stroke:#181818;stroke-width:1;"/><text fill="#000000" font-family="sans-serif" font-size="13" lengthAdjust="spacing" textLength="85.2046" x="441" y="186.6638">Query + pick</text></g><!--link UI to Storage--><g class="link" data-entity-1="UI" data-entity-2="Storage" data-source-line="39" data-uid="lnk24" id="link_UI_Storage"><path d="M759.94,259.7569 C757.22,260.2069 670.05,275.0769 638,326.8869 C620.56,355.0869 621.323,388.2274 625.463,414.9974" fill="none" id="UI-to-Storage" style="stroke:#181818;stroke-width:1;"/><polygon fill="#181818" points="626.38,420.9269,628.9575,411.4213,625.6158,415.9856,621.0515,412.6439,626.38,420.9269" style="stroke:#181818;stroke-width:1;"/><text fill="#000000" font-family="sans-serif" font-size="13" lengthAdjust="spacing" textLength="118.7012" x="639" y="347.4538">Save or load picks</text></g><!--link UI to Chat--><g class="link" data-entity-1="UI" data-entity-2="Chat" data-source-line="40" data-uid="lnk25" id="link_UI_Chat"><path d="M768.1953,261.4494 C768.3055,261.4744 768.4166,261.4996 768.5288,261.5251 C768.9774,261.6272 769.4416,261.7339 769.921,261.8453 C771.8383,262.2909 773.9975,262.8121 776.3661,263.413 C785.8403,265.8166 798.6644,269.4963 812.7613,274.7256 C840.955,285.1844 874.24,301.8419 896,326.8869 C920.44,355.0169 929.5217,392.18 933.5217,419.53" fill="none" id="UI-to-Chat" style="stroke:#181818;stroke-width:1;"/><polygon fill="#181818" points="934.39,425.4669,937.0455,415.9828,933.6664,420.5195,929.1297,417.1405,934.39,425.4669" style="stroke:#181818;stroke-width:1;"/><text fill="#000000" font-family="sans-serif" font-size="13" lengthAdjust="spacing" textLength="95.437" x="915.92" y="339.9538">POST /api/chat</text><text fill="#000000" font-family="sans-serif" font-size="13" lengthAdjust="spacing" textLength="24.7178" x="951.2796" y="355.0866">SSE</text></g><!--link Chat to UI--><g class="link" data-entity-1="Chat" data-entity-2="UI" data-source-line="48" data-uid="lnk33" id="link_Chat_UI"><path d="M895.82,432.2069 C865.44,416.3769 825.03,391.2169 799,358.8869 C784.38,340.7369 774.705,316.4344 768.6488,296.4331 C768.4595,295.8081 769.975,300.941 769.7928,300.3247" fill="none" id="Chat-to-UI" style="stroke:#181818;stroke-width:1;"/><polygon fill="#181818" points="768.0915,294.5709,766.8076,304.3357,769.5092,299.3657,774.4792,302.0674,768.0915,294.5709" style="stroke:#181818;stroke-width:1;"/><text fill="#000000" font-family="sans-serif" font-size="13" lengthAdjust="spacing" textLength="87.1089" x="800" y="339.9538">status + final</text><text fill="#000000" font-family="sans-serif" font-size="13" lengthAdjust="spacing" textLength="72.6489" x="807.23" y="355.0866">SSE events</text></g><!--link Chat to Search--><g class="link" data-entity-1="Chat" data-entity-2="Search" data-source-line="41" data-uid="lnk26" id="link_Chat_Search"><path d="M929.43,478.6369 C924.92,499.3069 922.55,528.1669 937,547.9869 C958.12,576.9469 990.6582,588.3149 1023.7382,593.3449" fill="none" id="Chat-to-Search" style="stroke:#181818;stroke-width:1;"/><polygon fill="#181818" points="1029.67,594.2469,1021.3736,588.9394,1024.7268,593.4952,1020.171,596.8485,1029.67,594.2469" style="stroke:#181818;stroke-width:1;"/><text fill="#000000" font-family="sans-serif" font-size="13" lengthAdjust="spacing" textLength="143.6855" x="938" y="544.0538">searchDocumentation</text></g><!--link Search to PerplexityEngine--><g class="link" data-entity-1="Search" data-entity-2="PerplexityEngine" data-source-line="42" data-uid="lnk27" id="link_Search_PerplexityEngine"><path d="M1029.48,609.2369 C987.5,617.6269 936.9,630.9769 924,648.2469 C912.36,663.8369 913.7015,681.2419 917.7415,697.1319" fill="none" id="Search-to-PerplexityEngine" style="stroke:#181818;stroke-width:1;"/><polygon fill="#181818" points="919.22,702.9469,920.879,693.2387,917.988,698.101,913.1257,695.21,919.22,702.9469" style="stroke:#181818;stroke-width:1;"/><text fill="#000000" font-family="sans-serif" font-size="13" lengthAdjust="spacing" textLength="158.6724" x="925" y="661.3138">search(perplexityQuery)</text></g><!--link Search to TavilyEngine--><g class="link" data-entity-1="Search" data-entity-2="TavilyEngine" data-source-line="43" data-uid="lnk28" id="link_Search_TavilyEngine"><path d="M1089.32,616.7269 C1089.33,630.3369 1090.52,649.4569 1096,665.2469 C1100.8,679.1069 1106.1911,688.1335 1113.9911,698.4935" fill="none" id="Search-to-TavilyEngine" style="stroke:#181818;stroke-width:1;"/><polygon fill="#181818" points="1117.6,703.2869,1115.3822,693.691,1114.5926,699.2924,1108.9911,698.5028,1117.6,703.2869" style="stroke:#181818;stroke-width:1;"/><text fill="#000000" font-family="sans-serif" font-size="13" lengthAdjust="spacing" textLength="154.8638" x="1097" y="661.3138">search(query, domains)</text></g><!--link Search to Combiner--><g class="link" data-entity-1="Search" data-entity-2="Combiner" data-source-line="44" data-uid="lnk29" id="link_Search_Combiner"><path d="M1150.45,608.8969 C1183.43,616.1569 1223.95,628.3569 1256,648.2469 C1275.34,660.2569 1288.9672,674.5757 1301.1472,690.1057" fill="none" id="Search-to-Combiner" style="stroke:#181818;stroke-width:1;"/><polygon fill="#181818" points="1304.85,694.8269,1302.4433,685.2766,1301.7644,690.8926,1296.1484,690.2136,1304.85,694.8269" style="stroke:#181818;stroke-width:1;"/><text fill="#000000" font-family="sans-serif" font-size="13" lengthAdjust="spacing" textLength="103.835" x="1278.26" y="661.3138">combine results</text></g><!--link PerplexityEngine to Perplexity--><g class="link" data-entity-1="PerplexityEngine" data-entity-2="Perplexity" data-source-line="45" data-uid="lnk30" id="link_PerplexityEngine_Perplexity"><path d="M925,740.1469 C925,764.3669 925,802.0169 925,828.6069" fill="none" id="PerplexityEngine-to-Perplexity" style="stroke:#181818;stroke-width:1;"/><polygon fill="#181818" points="925,834.6069,929,825.6069,925,829.6069,921,825.6069,925,834.6069" style="stroke:#181818;stroke-width:1;"/></g><!--link TavilyEngine to Tavily--><g class="link" data-entity-1="TavilyEngine" data-entity-2="Tavily" data-source-line="46" data-uid="lnk31" id="link_TavilyEngine_Tavily"><path d="M1128.08,740.1469 C1122.68,764.3669 1114.256,802.1607 1108.326,828.7507" fill="none" id="TavilyEngine-to-Tavily" style="stroke:#181818;stroke-width:1;"/><polygon fill="#181818" points="1107.02,834.6069,1112.8831,826.6933,1108.1083,829.7268,1105.0749,824.952,1107.02,834.6069" style="stroke:#181818;stroke-width:1;"/></g><!--link Combiner to LLM--><g class="link" data-entity-1="Combiner" data-entity-2="LLM" data-source-line="47" data-uid="lnk32" id="link_Combiner_LLM"><path d="M1332.71,748.1769 C1341.15,770.4469 1351.2622,797.1468 1360.2322,820.7968" fill="none" id="Combiner-to-LLM" style="stroke:#181818;stroke-width:1;"/><polygon fill="#181818" points="1362.36,826.4069,1362.9084,816.5733,1360.5868,821.7318,1355.4283,819.4103,1362.36,826.4069" style="stroke:#181818;stroke-width:1;"/></g><!--link UI to Rock--><g class="link" data-entity-1="UI" data-entity-2="Rock" data-source-line="50" data-uid="lnk34" id="link_UI_Rock"><path d="M768.4395,259.6423 C768.5944,259.6424 768.7514,259.6426 768.9103,259.6429 C773.9951,259.651 781.088,259.7508 789.7491,260.0984 C807.0713,260.7937 830.6663,262.4806 857.015,266.4094 C909.7125,274.2669 973.425,291.0919 1020,326.8869 C1052.69,352.0169 1070.5081,391.3667 1080.3381,419.7767" fill="none" id="UI-to-Rock" style="stroke:#181818;stroke-width:1;"/><polygon fill="#181818" points="1082.3,425.4469,1083.1373,415.6337,1080.6651,420.7217,1075.577,418.2495,1082.3,425.4469" style="stroke:#181818;stroke-width:1;"/><text fill="#000000" font-family="sans-serif" font-size="13" lengthAdjust="spacing" textLength="94.9609" x="1068.3666" y="339.9538">POST /api/rock</text><text fill="#000000" font-family="sans-serif" font-size="13" lengthAdjust="spacing" textLength="131.9741" x="1049.86" y="355.0866">User-Agent required</text></g><!--link Rock to Search--><g class="link" data-entity-1="Rock" data-entity-2="Search" data-source-line="51" data-uid="lnk35" id="link_Rock_Search"><path d="M1090,478.9169 C1090,508.0269 1090,548.6369 1090,573.7469" fill="none" id="Rock-to-Search" style="stroke:#181818;stroke-width:1;"/><polygon fill="#181818" points="1090,579.7469,1094,570.7469,1090,574.7469,1086,570.7469,1090,579.7469" style="stroke:#181818;stroke-width:1;"/></g><!--link MCPWrapper to Server--><g class="link" data-entity-1="MCPWrapper" data-entity-2="Server" data-source-line="52" data-uid="lnk36" id="link_MCPWrapper_Server"><path d="M1431.11,292.5769 C1418.22,301.7769 1406.53,313.1269 1399,326.8869 C1392.17,339.3669 1391.38,346.8769 1399,358.8869 C1403.47,365.9369 1411.2,360.0569 1416,366.8869 C1418.6213,370.6156 1420.725,374.6775 1422.3981,378.9371 C1422.8164,380.0021 1423.2078,381.0793 1423.5736,382.1669 C1423.6193,382.3028 1421.7857,376.7407 1421.8306,376.877" fill="none" id="MCPWrapper-to-Server" style="stroke:#181818;stroke-width:1;"/><polygon fill="#181818" points="1423.7096,382.5751,1424.6899,372.7752,1422.1438,377.8267,1417.0923,375.2805,1423.7096,382.5751" style="stroke:#181818;stroke-width:1;"/><text fill="#000000" font-family="sans-serif" font-size="13" lengthAdjust="spacing" textLength="179.6958" x="1400" y="339.9538">Calls existing API endpoints</text><text fill="#000000" font-family="sans-serif" font-size="13" lengthAdjust="spacing" textLength="87.1216" x="1446.2871" y="355.0866">(no /api/mcp)</text></g><!--link PWA to UI--><g class="link" data-entity-1="PWA" data-entity-2="UI" data-source-line="54" data-uid="lnk37" id="link_PWA_UI"><path d="M559.8615,115.9517 C559.7939,116.0368 559.726,116.1225 559.6578,116.2086 C559.5216,116.3808 559.3843,116.5548 559.2461,116.7308 C554.8234,122.3609 549.4369,129.895 544.8488,138.2881 C535.6725,155.0744 529.69,175.2969 541,190.5969 C548.4475,200.6694 565.4925,209.8506 586.9602,217.9694 C597.694,222.0288 609.5335,225.8225 621.8318,229.3292 C623.3691,229.7676 624.9135,230.2014 626.4639,230.6307 C627.2391,230.8454 628.0157,231.0589 628.7937,231.2713" fill="none" id="PWA-UI" style="stroke:#181818;stroke-width:1;stroke-dasharray:7,7;"/><text fill="#000000" font-family="sans-serif" font-size="13" lengthAdjust="spacing" textLength="187.1289" x="542" y="186.6638">PWA meta + SW registration</text></g><!--link Manifest to UI--><g class="link" data-entity-1="Manifest" data-entity-2="UI" data-source-line="55" data-uid="lnk38" id="link_Manifest_UI"><path d="M688.27,123.8969 C704.97,135.9369 725.48,153.3869 738,173.5969 C747.86,189.5119 753.33,209.7519 756.3487,226.3931 C756.5374,227.4332 756.7165,228.4592 756.8865,229.4693 C756.9715,229.9743 757.0542,230.4753 757.1347,230.9721 C757.1549,231.0963 757.1749,231.2202 757.1947,231.3438" fill="none" id="Manifest-UI" style="stroke:#181818;stroke-width:1;stroke-dasharray:7,7;"/></g><!--link SW to UI--><g class="link" data-entity-1="SW" data-entity-2="UI" data-source-line="56" data-uid="lnk39" id="link_SW_UI"><path d="M781.13,123.9569 C781.91,141.0469 782.31,167.7469 779,190.5969 C776.845,205.4619 772.32,221.6794 768.2263,234.4519 C768.1623,234.6514 768.0984,234.8502 768.0347,235.048" fill="none" id="SW-UI" style="stroke:#181818;stroke-width:1;stroke-dasharray:7,7;"/></g><!--link Icons to UI--><g class="link" data-entity-1="Icons" data-entity-2="UI" data-source-line="57" data-uid="lnk40" id="link_Icons_UI"><path d="M880.4,123.7969 C862.815,143.3569 833.3725,176.1094 808.005,204.3306 C795.3213,218.4413 783.6563,231.4191 775.0016,241.0486 C772.8379,243.456 770.8624,245.6541 769.1061,247.6083 C768.8866,247.8526 768.6705,248.0931 768.4578,248.3297 C768.3515,248.448 768.2461,248.5653 768.1415,248.6816" fill="none" id="Icons-UI" style="stroke:#181818;stroke-width:1;stroke-dasharray:7,7;"/></g><!--link Chat to GMN41--><g class="link" data-entity-1="Chat" data-entity-2="GMN41" data-source-line="60" data-uid="lnk43" id="link_Chat_GMN41"><path d="M952.45,425.5669 C971.17,396.2969 1005.69,350.8969 1049.5,331.8869 C1121.15,300.7969 1677.13,311.3669 1752.5,331.8869 C1812.71,348.2869 1873.28,387.4069 1912.69,416.6169" fill="none" id="Chat-GMN41" style="stroke:#181818;stroke-width:1;stroke-dasharray:7,7;"/></g><!--link Page to GMN44--><g class="link" data-entity-1="Page" data-entity-2="GMN44" data-source-line="67" data-uid="lnk46" id="link_Page_GMN44"><path d="M88.87,433.6569 C100.41,405.6069 126.61,353.3669 168.5,331.8869 C265.3,282.2669 2024.81,293.2669 2126.5,331.8869 C2170.91,348.7569 2210.07,387.5769 2234.72,416.5869" fill="none" id="Page-GMN44" style="stroke:#181818;stroke-width:1;stroke-dasharray:7,7;"/></g><!--link Rock to GMN47--><g class="link" data-entity-1="Rock" data-entity-2="GMN47" data-source-line="74" data-uid="lnk49" id="link_Rock_GMN47"><path d="M1099.72,478.7369 C1106.87,494.0169 1118.13,512.4469 1134,522.9869 C1160.58,540.6369 1333.02,565.6969 1455.76,581.6769" fill="none" id="Rock-GMN47" style="stroke:#181818;stroke-width:1;stroke-dasharray:7,7;"/></g><!--link MCPWrapper to GMN50--><g class="link" data-entity-1="MCPWrapper" data-entity-2="GMN50" data-source-line="79" data-uid="lnk52" id="link_MCPWrapper_GMN50"><path d="M1559.27,297.1669 C1568.79,305.8969 1577.65,315.8969 1584,326.8869 C1605.27,363.7069 1606.94,416.1069 1606.5,439.3269" fill="none" id="MCPWrapper-GMN50" style="stroke:#181818;stroke-width:1;stroke-dasharray:7,7;"/></g><!--SRC=[TLLDSzis4BtZL-puKdigqivCJZfqHbKo7JLsp9fnTD459bSIAX1WiA0KJQV_lGk0b4GblG6xRxyV5h_01rjbBxRQeGEodQiGw4WU6x1xT7k51rXR1wrrNfaDU0kFQezVMIw4LrxZfOCoEIYJWzjoZzhZ9-Nl88EYz_3SknM2Tigqqia6Ajkqrg3nfJ-oHuULbsQZyG92MrdRGt2mbffG25bvpkkLqFN7cwTv0KidsvOpkILVAtDt0vA0vRrOY9DhkFdTsGDRm-iYebuNy8-0SohiJoe3XTmWt4T4E8uHBqXy9FoWgDNo6563xDgNst7-vX8vo1XPIo_V975MsbPIbrmF1rkn6yq9OyqzxXfs9Bsofb3LZgA77YV-7HMMsWubznbTmiNZTNttibNtrLRwbIdBZn4uvzjFG8x7kp9_bi-VKuby7QDAbAxQXZ2gmZvaa8nH1RfMutVbZqdxqMoKIV2pAWd7Xb_aNkaVZPBuPmQFkfbROxWdVKuhCxVD6-DIGuPBw5obRLTV9WUpOd6Lr01A4K-0T1sKZuzFK3YxLpMwbRbzRj7C5XEO6RzrjbNL1Fx0HXarWIT5taazWO1viPr7bwZABaQZB9Opc16XJ_CErwiXDjAeDPBF_oPhUbeboHX71qQaoIp76bKnNU5Nq7PZ8s0H1A4puN51blqMtiOK_khG7Hd7bUm4IuAY9o1hIxb7u5UehQmZX0PCu1G3YkVo2umf9w8g-ecZPHJ5muZkebS6t3LDJXQtxKaJyxoxjBhaoTdYMy1DeBODltCQ6GpqO72LZhoJgDEUn0yPZDCIerZduEBaCiZ2c4-rn-OIrzg5AQoLaJfs1t3FBI0nz36ykb4VqwiCGyfccp1AXzywvR0M4NhkgpXlm5uQry4Kvb9h0awSucfcMWEQkhMAupA3ZKs1cggz4oAGByzJkk7Se9USSBdak9j8w3YjWNu9ArYT3f5L_LaOomlAgStMWrsdhHCgRf28wKHJaVKTcV9kyJBz76bkd67eBULvVZE29MqWjaPUcJc_HUI_8rZsm-jDOekdmv3h4FsqjBby2CbTfnXt_rUfLHsh1DVfb6PaqRdp6JJoExn_U01ckIE-yokBxm4wmoO41-jqVU0TSHthpNflcn0ixjUNv9BWFE2fME9RbWhDpjzknkEzVyZVvG__x_BY3mpVv5QQMcFDe-VLmztWdRPN4kAd2OSUU7Bs7m00]--></g></svg>